<?xml version="1.0" standalone="no"?>
<!DOCTYPE svg PUBLIC "-//W3C//DTD SVG 20010904//EN"
 "http://www.w3.org/TR/2001/REC-SVG-20010904/DTD/svg10.dtd">
<svg version="1.0" xmlns="http://www.w3.org/2000/svg"
 width="500.000000pt" height="500.000000pt" viewBox="0 0 500.000000 500.000000"
 preserveAspectRatio="xMidYMid meet">

<g transform="translate(0.000000,500.000000) scale(0.100000,-0.100000)"
fill="#000000" stroke="none">
<path d="M2220 4154 c-624 -70 -1184 -346 -1615 -796 -201 -210 -358 -436
-487 -703 -74 -153 -74 -154 10 -327 313 -646 868 -1138 1532 -1358 535 -177
1077 -185 1610 -23 697 212 1274 710 1601 1380 33 67 62 135 65 152 7 33 -4
65 -63 188 -279 582 -758 1042 -1348 1292 -11 5 -36 16 -55 24 -53 23 -206 74
-290 96 -314 83 -658 110 -960 75z m506 -563 c378 -81 667 -328 818 -700 81
-199 90 -519 21 -727 -55 -162 -150 -317 -270 -439 -133 -136 -281 -228 -450
-283 -138 -45 -223 -55 -392 -49 -212 7 -356 50 -546 164 -94 56 -262 216
-324 308 -138 205 -193 388 -193 640 0 248 53 421 194 630 51 77 203 229 281
282 120 81 272 145 417 177 99 21 337 20 444 -3z"/>
<path d="M2244 3126 c-3 -8 -4 -31 -2 -52 3 -34 6 -39 31 -42 l27 -3 0 -176 0
-175 -185 -375 c-165 -334 -185 -380 -185 -425 0 -41 5 -54 28 -78 49 -49 76
-51 570 -48 513 3 508 3 539 75 20 49 11 91 -44 193 -76 141 -189 354 -268
505 -32 61 -64 119 -71 130 -11 14 -14 64 -14 197 l0 178 23 0 c31 0 47 18 47
51 0 61 10 59 -251 59 -196 0 -241 -3 -245 -14z m316 -287 l0 -190 80 -153
c44 -85 80 -156 80 -160 0 -3 -103 -6 -230 -6 -126 0 -230 2 -230 5 0 3 36 77
80 165 l80 160 0 185 0 185 70 0 70 0 0 -191z"/>
</g>
</svg>
